<mxfile host="Electron" modified="2023-09-20T08:14:46.128Z" agent="Mozilla/5.0 (Windows NT 10.0; Win64; x64) AppleWebKit/537.36 (KHTML, like Gecko) draw.io/21.3.7 Chrome/112.0.5615.204 Electron/24.5.0 Safari/537.36" etag="-ROAdeI6amhJez6B1egs" version="21.3.7" type="device">
  <diagram name="Page-1" id="KOc5lzrNY1ax1Q7tnOLz">
    <mxGraphModel dx="1687" dy="993" grid="1" gridSize="10" guides="1" tooltips="1" connect="1" arrows="1" fold="1" page="1" pageScale="1" pageWidth="827" pageHeight="1169" math="0" shadow="0">
      <root>
        <mxCell id="0" />
        <mxCell id="1" parent="0" />
        <mxCell id="ldkix52bEkoFvHIhopIW-28" value="" style="rounded=1;whiteSpace=wrap;html=1;fillColor=#d5e8d4;strokeColor=#82b366;" parent="1" vertex="1">
          <mxGeometry x="17" y="565" width="120" height="435" as="geometry" />
        </mxCell>
        <mxCell id="ldkix52bEkoFvHIhopIW-21" value="" style="rounded=1;whiteSpace=wrap;html=1;fillColor=#f8cecc;strokeColor=#b85450;" parent="1" vertex="1">
          <mxGeometry x="870" width="770" height="590" as="geometry" />
        </mxCell>
        <mxCell id="5b1crxVSo52NuIJrR2hu-26" value="" style="rounded=1;whiteSpace=wrap;html=1;fillColor=#fff2cc;strokeColor=#d6b656;" parent="1" vertex="1">
          <mxGeometry x="157" y="565" width="453" height="445" as="geometry" />
        </mxCell>
        <mxCell id="5b1crxVSo52NuIJrR2hu-23" value="" style="rounded=1;whiteSpace=wrap;html=1;fillColor=#dae8fc;strokeColor=#6c8ebf;" parent="1" vertex="1">
          <mxGeometry x="123" width="704" height="555" as="geometry" />
        </mxCell>
        <mxCell id="7ONHv5lKK2GfBuB7JvL1-2" value="" style="verticalLabelPosition=bottom;html=1;verticalAlign=top;align=center;strokeColor=none;fillColor=#00BEF2;shape=mxgraph.azure.server;" parent="1" vertex="1">
          <mxGeometry x="294.55" y="436" width="136" height="40" as="geometry" />
        </mxCell>
        <mxCell id="7ONHv5lKK2GfBuB7JvL1-3" value="" style="image;aspect=fixed;html=1;points=[];align=center;fontSize=12;image=img/lib/azure2/networking/Virtual_WANs.svg;" parent="1" vertex="1">
          <mxGeometry x="326" y="315" width="71.09" height="70" as="geometry" />
        </mxCell>
        <mxCell id="7ONHv5lKK2GfBuB7JvL1-4" value="" style="sketch=0;pointerEvents=1;shadow=0;dashed=0;html=1;strokeColor=none;fillColor=#005F4B;labelPosition=center;verticalLabelPosition=bottom;verticalAlign=top;align=center;outlineConnect=0;shape=mxgraph.veeam2.esxi_host;" parent="1" vertex="1">
          <mxGeometry x="209" y="240" width="100" height="100" as="geometry" />
        </mxCell>
        <mxCell id="7ONHv5lKK2GfBuB7JvL1-5" value="" style="sketch=0;pointerEvents=1;shadow=0;dashed=0;html=1;strokeColor=none;fillColor=#005F4B;labelPosition=center;verticalLabelPosition=bottom;verticalAlign=top;align=center;outlineConnect=0;shape=mxgraph.veeam2.esxi_host;" parent="1" vertex="1">
          <mxGeometry x="427" y="240" width="100" height="100" as="geometry" />
        </mxCell>
        <mxCell id="7ONHv5lKK2GfBuB7JvL1-6" value="" style="image;aspect=fixed;perimeter=ellipsePerimeter;html=1;align=center;shadow=0;dashed=0;spacingTop=3;image=img/lib/active_directory/windows_server_2.svg;" parent="1" vertex="1">
          <mxGeometry x="187" y="125" width="56" height="70" as="geometry" />
        </mxCell>
        <mxCell id="7ONHv5lKK2GfBuB7JvL1-7" value="" style="image;aspect=fixed;perimeter=ellipsePerimeter;html=1;align=center;shadow=0;dashed=0;spacingTop=3;image=img/lib/active_directory/windows_server_2.svg;" parent="1" vertex="1">
          <mxGeometry x="397" y="125" width="56" height="70" as="geometry" />
        </mxCell>
        <mxCell id="7ONHv5lKK2GfBuB7JvL1-8" value="" style="image;sketch=0;aspect=fixed;html=1;points=[];align=center;fontSize=12;image=img/lib/mscae/VM_Linux.svg;" parent="1" vertex="1">
          <mxGeometry x="459" y="132" width="60.87" height="56" as="geometry" />
        </mxCell>
        <mxCell id="7ONHv5lKK2GfBuB7JvL1-9" value="" style="image;sketch=0;aspect=fixed;html=1;points=[];align=center;fontSize=12;image=img/lib/mscae/VM_Linux.svg;" parent="1" vertex="1">
          <mxGeometry x="527" y="132" width="60.87" height="56" as="geometry" />
        </mxCell>
        <mxCell id="7ONHv5lKK2GfBuB7JvL1-10" value="" style="sketch=0;points=[[0,0,0],[0.25,0,0],[0.5,0,0],[0.75,0,0],[1,0,0],[0,1,0],[0.25,1,0],[0.5,1,0],[0.75,1,0],[1,1,0],[0,0.25,0],[0,0.5,0],[0,0.75,0],[1,0.25,0],[1,0.5,0],[1,0.75,0]];outlineConnect=0;fontColor=#232F3E;gradientColor=#60A337;gradientDirection=north;fillColor=#277116;strokeColor=#ffffff;dashed=0;verticalLabelPosition=bottom;verticalAlign=top;align=center;html=1;fontSize=12;fontStyle=0;aspect=fixed;shape=mxgraph.aws4.resourceIcon;resIcon=mxgraph.aws4.backup;" parent="1" vertex="1">
          <mxGeometry x="621.44" y="485" width="50" height="50" as="geometry" />
        </mxCell>
        <mxCell id="7ONHv5lKK2GfBuB7JvL1-11" value="" style="sketch=0;points=[[0,0,0],[0.25,0,0],[0.5,0,0],[0.75,0,0],[1,0,0],[0,1,0],[0.25,1,0],[0.5,1,0],[0.75,1,0],[1,1,0],[0,0.25,0],[0,0.5,0],[0,0.75,0],[1,0.25,0],[1,0.5,0],[1,0.75,0]];outlineConnect=0;fontColor=#232F3E;gradientColor=#60A337;gradientDirection=north;fillColor=#277116;strokeColor=#ffffff;dashed=0;verticalLabelPosition=bottom;verticalAlign=top;align=center;html=1;fontSize=12;fontStyle=0;aspect=fixed;shape=mxgraph.aws4.resourceIcon;resIcon=mxgraph.aws4.backup;" parent="1" vertex="1">
          <mxGeometry x="697.44" y="485" width="50" height="50" as="geometry" />
        </mxCell>
        <mxCell id="5b1crxVSo52NuIJrR2hu-1" value="" style="image;aspect=fixed;perimeter=ellipsePerimeter;html=1;align=center;shadow=0;dashed=0;spacingTop=3;image=img/lib/active_directory/windows_server_2.svg;" parent="1" vertex="1">
          <mxGeometry x="472.6" y="408" width="54.4" height="68" as="geometry" />
        </mxCell>
        <mxCell id="5b1crxVSo52NuIJrR2hu-3" value="" style="verticalLabelPosition=bottom;html=1;verticalAlign=top;align=center;strokeColor=none;fillColor=#00BEF2;shape=mxgraph.azure.vhd;pointerEvents=1;" parent="1" vertex="1">
          <mxGeometry x="547" y="455" width="30" height="40" as="geometry" />
        </mxCell>
        <mxCell id="5b1crxVSo52NuIJrR2hu-6" value="" style="verticalLabelPosition=bottom;html=1;verticalAlign=top;align=center;strokeColor=none;fillColor=#00BEF2;shape=mxgraph.azure.vhd;pointerEvents=1;" parent="1" vertex="1">
          <mxGeometry x="546" y="408" width="30" height="40" as="geometry" />
        </mxCell>
        <mxCell id="5b1crxVSo52NuIJrR2hu-7" value="" style="sketch=0;points=[[0,0,0],[0.25,0,0],[0.5,0,0],[0.75,0,0],[1,0,0],[0,1,0],[0.25,1,0],[0.5,1,0],[0.75,1,0],[1,1,0],[0,0.25,0],[0,0.5,0],[0,0.75,0],[1,0.25,0],[1,0.5,0],[1,0.75,0]];outlineConnect=0;fontColor=#232F3E;gradientColor=#60A337;gradientDirection=north;fillColor=#277116;strokeColor=#ffffff;dashed=0;verticalLabelPosition=bottom;verticalAlign=top;align=center;html=1;fontSize=12;fontStyle=0;aspect=fixed;shape=mxgraph.aws4.resourceIcon;resIcon=mxgraph.aws4.backup;" parent="1" vertex="1">
          <mxGeometry x="190" y="705" width="50" height="50" as="geometry" />
        </mxCell>
        <mxCell id="5b1crxVSo52NuIJrR2hu-8" value="&lt;b&gt;&lt;font style=&quot;font-size: 15px;&quot;&gt;Infrastructure&lt;/font&gt;&lt;/b&gt;" style="text;html=1;strokeColor=none;fillColor=none;align=center;verticalAlign=middle;whiteSpace=wrap;rounded=0;" parent="1" vertex="1">
          <mxGeometry x="627" y="25" width="102" height="30" as="geometry" />
        </mxCell>
        <mxCell id="5b1crxVSo52NuIJrR2hu-9" value="&lt;span style=&quot;font-size: 15px;&quot;&gt;&lt;b&gt;SRV-AD1&lt;/b&gt;&lt;/span&gt;" style="text;html=1;strokeColor=none;fillColor=none;align=center;verticalAlign=middle;whiteSpace=wrap;rounded=0;" parent="1" vertex="1">
          <mxGeometry x="151" y="85" width="102" height="30" as="geometry" />
        </mxCell>
        <mxCell id="5b1crxVSo52NuIJrR2hu-10" value="&lt;span style=&quot;font-size: 15px;&quot;&gt;&lt;b&gt;SRV-AD2&lt;/b&gt;&lt;/span&gt;" style="text;html=1;strokeColor=none;fillColor=none;align=center;verticalAlign=middle;whiteSpace=wrap;rounded=0;" parent="1" vertex="1">
          <mxGeometry x="370" y="85" width="102" height="30" as="geometry" />
        </mxCell>
        <mxCell id="5b1crxVSo52NuIJrR2hu-11" value="&lt;span style=&quot;font-size: 15px;&quot;&gt;&lt;b&gt;SRV-WEB&lt;/b&gt;&lt;/span&gt;" style="text;html=1;strokeColor=none;fillColor=none;align=center;verticalAlign=middle;whiteSpace=wrap;rounded=0;" parent="1" vertex="1">
          <mxGeometry x="448.8" y="85" width="102" height="30" as="geometry" />
        </mxCell>
        <mxCell id="5b1crxVSo52NuIJrR2hu-12" value="&lt;span style=&quot;font-size: 15px;&quot;&gt;&lt;b&gt;SRV-GLPI&lt;/b&gt;&lt;/span&gt;" style="text;html=1;strokeColor=none;fillColor=none;align=center;verticalAlign=middle;whiteSpace=wrap;rounded=0;" parent="1" vertex="1">
          <mxGeometry x="537" y="85" width="102" height="30" as="geometry" />
        </mxCell>
        <mxCell id="5b1crxVSo52NuIJrR2hu-13" value="&lt;span style=&quot;font-size: 15px;&quot;&gt;&lt;b&gt;PfSense&lt;/b&gt;&lt;/span&gt;" style="text;html=1;strokeColor=none;fillColor=none;align=center;verticalAlign=middle;whiteSpace=wrap;rounded=0;" parent="1" vertex="1">
          <mxGeometry x="311.55" y="275" width="102" height="30" as="geometry" />
        </mxCell>
        <mxCell id="5b1crxVSo52NuIJrR2hu-14" value="&lt;span style=&quot;font-size: 15px;&quot;&gt;&lt;b&gt;Proxmox&lt;/b&gt;&lt;/span&gt;" style="text;html=1;strokeColor=none;fillColor=none;align=center;verticalAlign=middle;whiteSpace=wrap;rounded=0;" parent="1" vertex="1">
          <mxGeometry x="250.55" y="480" width="102" height="30" as="geometry" />
        </mxCell>
        <mxCell id="5b1crxVSo52NuIJrR2hu-15" value="&lt;span style=&quot;font-size: 15px;&quot;&gt;&lt;b&gt;SRV-VEEAM&lt;/b&gt;&lt;/span&gt;" style="text;html=1;strokeColor=none;fillColor=none;align=center;verticalAlign=middle;whiteSpace=wrap;rounded=0;" parent="1" vertex="1">
          <mxGeometry x="438.43" y="365" width="102" height="30" as="geometry" />
        </mxCell>
        <mxCell id="5b1crxVSo52NuIJrR2hu-16" value="&lt;span style=&quot;font-size: 15px;&quot;&gt;&lt;b&gt;50G HDD&lt;/b&gt;&lt;/span&gt;" style="text;html=1;strokeColor=none;fillColor=none;align=center;verticalAlign=middle;whiteSpace=wrap;rounded=0;" parent="1" vertex="1">
          <mxGeometry x="527" y="505" width="76" height="30" as="geometry" />
        </mxCell>
        <mxCell id="5b1crxVSo52NuIJrR2hu-17" value="&lt;span style=&quot;font-size: 15px;&quot;&gt;&lt;b&gt;60G HDD&lt;/b&gt;&lt;/span&gt;" style="text;html=1;strokeColor=none;fillColor=none;align=center;verticalAlign=middle;whiteSpace=wrap;rounded=0;" parent="1" vertex="1">
          <mxGeometry x="587.87" y="408" width="76" height="30" as="geometry" />
        </mxCell>
        <mxCell id="5b1crxVSo52NuIJrR2hu-18" value="&lt;span style=&quot;font-size: 15px;&quot;&gt;&lt;b&gt;Backup 2&lt;/b&gt;&lt;/span&gt;" style="text;html=1;strokeColor=none;fillColor=none;align=center;verticalAlign=middle;whiteSpace=wrap;rounded=0;" parent="1" vertex="1">
          <mxGeometry x="684.44" y="448" width="76" height="30" as="geometry" />
        </mxCell>
        <mxCell id="5b1crxVSo52NuIJrR2hu-19" value="&lt;span style=&quot;font-size: 15px;&quot;&gt;&lt;b&gt;Backup 1&lt;/b&gt;&lt;/span&gt;" style="text;html=1;strokeColor=none;fillColor=none;align=center;verticalAlign=middle;whiteSpace=wrap;rounded=0;" parent="1" vertex="1">
          <mxGeometry x="608.44" y="448" width="76" height="30" as="geometry" />
        </mxCell>
        <mxCell id="5b1crxVSo52NuIJrR2hu-22" value="" style="image;points=[];aspect=fixed;html=1;align=center;shadow=0;dashed=0;image=img/lib/allied_telesis/computer_and_terminals/Laptop.svg;" parent="1" vertex="1">
          <mxGeometry x="174.45" y="635" width="42" height="42.599999999999994" as="geometry" />
        </mxCell>
        <mxCell id="5b1crxVSo52NuIJrR2hu-24" value="&lt;b&gt;&lt;font style=&quot;font-size: 15px;&quot;&gt;Plan 3, 2, 1&lt;/font&gt;&lt;/b&gt;" style="text;html=1;strokeColor=none;fillColor=none;align=center;verticalAlign=middle;whiteSpace=wrap;rounded=0;" parent="1" vertex="1">
          <mxGeometry x="370.6" y="15" width="102" height="30" as="geometry" />
        </mxCell>
        <mxCell id="5b1crxVSo52NuIJrR2hu-25" value="&lt;span style=&quot;font-size: 15px;&quot;&gt;&lt;b&gt;Externe&lt;/b&gt;&lt;/span&gt;" style="text;html=1;strokeColor=none;fillColor=none;align=center;verticalAlign=middle;whiteSpace=wrap;rounded=0;" parent="1" vertex="1">
          <mxGeometry x="164" y="585" width="102" height="30" as="geometry" />
        </mxCell>
        <mxCell id="5b1crxVSo52NuIJrR2hu-27" value="" style="verticalLabelPosition=bottom;html=1;verticalAlign=top;align=center;strokeColor=none;fillColor=#00BEF2;shape=mxgraph.azure.vhd;pointerEvents=1;" parent="1" vertex="1">
          <mxGeometry x="236" y="637.6" width="30" height="40" as="geometry" />
        </mxCell>
        <mxCell id="5b1crxVSo52NuIJrR2hu-28" value="&lt;span style=&quot;font-size: 15px;&quot;&gt;&lt;b&gt;Backup 3&lt;/b&gt;&lt;/span&gt;" style="text;html=1;strokeColor=none;fillColor=none;align=center;verticalAlign=middle;whiteSpace=wrap;rounded=0;" parent="1" vertex="1">
          <mxGeometry x="177" y="765" width="76" height="30" as="geometry" />
        </mxCell>
        <mxCell id="5b1crxVSo52NuIJrR2hu-30" value="" style="endArrow=none;html=1;rounded=0;entryX=0.495;entryY=1.04;entryDx=0;entryDy=0;entryPerimeter=0;" parent="1" target="7ONHv5lKK2GfBuB7JvL1-3" edge="1">
          <mxGeometry width="50" height="50" relative="1" as="geometry">
            <mxPoint x="360.55" y="435" as="sourcePoint" />
            <mxPoint x="410.55" y="385" as="targetPoint" />
          </mxGeometry>
        </mxCell>
        <mxCell id="5b1crxVSo52NuIJrR2hu-31" value="" style="endArrow=none;html=1;rounded=0;entryX=0;entryY=0.75;entryDx=0;entryDy=0;" parent="1" target="5b1crxVSo52NuIJrR2hu-1" edge="1">
          <mxGeometry width="50" height="50" relative="1" as="geometry">
            <mxPoint x="430.55" y="458" as="sourcePoint" />
            <mxPoint x="480.55" y="408" as="targetPoint" />
          </mxGeometry>
        </mxCell>
        <mxCell id="5b1crxVSo52NuIJrR2hu-32" value="" style="endArrow=none;html=1;rounded=0;" parent="1" target="7ONHv5lKK2GfBuB7JvL1-5" edge="1">
          <mxGeometry width="50" height="50" relative="1" as="geometry">
            <mxPoint x="383" y="435" as="sourcePoint" />
            <mxPoint x="433" y="385" as="targetPoint" />
          </mxGeometry>
        </mxCell>
        <mxCell id="5b1crxVSo52NuIJrR2hu-33" value="" style="endArrow=none;html=1;rounded=0;exitX=0.015;exitY=0.03;exitDx=0;exitDy=0;exitPerimeter=0;" parent="1" source="7ONHv5lKK2GfBuB7JvL1-2" edge="1">
          <mxGeometry width="50" height="50" relative="1" as="geometry">
            <mxPoint x="216" y="390" as="sourcePoint" />
            <mxPoint x="266" y="340" as="targetPoint" />
          </mxGeometry>
        </mxCell>
        <mxCell id="5b1crxVSo52NuIJrR2hu-34" value="" style="endArrow=none;html=1;rounded=0;" parent="1" source="7ONHv5lKK2GfBuB7JvL1-4" edge="1">
          <mxGeometry width="50" height="50" relative="1" as="geometry">
            <mxPoint x="151" y="238" as="sourcePoint" />
            <mxPoint x="201" y="188" as="targetPoint" />
          </mxGeometry>
        </mxCell>
        <mxCell id="5b1crxVSo52NuIJrR2hu-35" value="" style="endArrow=none;html=1;rounded=0;" parent="1" source="7ONHv5lKK2GfBuB7JvL1-5" edge="1">
          <mxGeometry width="50" height="50" relative="1" as="geometry">
            <mxPoint x="360.55" y="240" as="sourcePoint" />
            <mxPoint x="410.55" y="190" as="targetPoint" />
          </mxGeometry>
        </mxCell>
        <mxCell id="5b1crxVSo52NuIJrR2hu-36" value="" style="endArrow=none;html=1;rounded=0;" parent="1" edge="1">
          <mxGeometry width="50" height="50" relative="1" as="geometry">
            <mxPoint x="519.87" y="240" as="sourcePoint" />
            <mxPoint x="569.87" y="190" as="targetPoint" />
          </mxGeometry>
        </mxCell>
        <mxCell id="5b1crxVSo52NuIJrR2hu-37" value="" style="endArrow=none;html=1;rounded=0;" parent="1" source="7ONHv5lKK2GfBuB7JvL1-5" edge="1">
          <mxGeometry width="50" height="50" relative="1" as="geometry">
            <mxPoint x="446" y="238" as="sourcePoint" />
            <mxPoint x="496" y="188" as="targetPoint" />
          </mxGeometry>
        </mxCell>
        <mxCell id="5b1crxVSo52NuIJrR2hu-39" value="" style="sketch=0;points=[[0.015,0.015,0],[0.985,0.015,0],[0.985,0.985,0],[0.015,0.985,0],[0.25,0,0],[0.5,0,0],[0.75,0,0],[1,0.25,0],[1,0.5,0],[1,0.75,0],[0.75,1,0],[0.5,1,0],[0.25,1,0],[0,0.75,0],[0,0.5,0],[0,0.25,0]];verticalLabelPosition=bottom;html=1;verticalAlign=top;aspect=fixed;align=center;pointerEvents=1;shape=mxgraph.cisco19.rect;prIcon=l3_switch;fillColor=#FAFAFA;strokeColor=#005073;" parent="1" vertex="1">
          <mxGeometry x="339" y="525" width="50" height="50" as="geometry" />
        </mxCell>
        <mxCell id="5b1crxVSo52NuIJrR2hu-40" value="&lt;span style=&quot;font-size: 15px;&quot;&gt;&lt;b&gt;Switch L3&lt;/b&gt;&lt;/span&gt;" style="text;html=1;strokeColor=none;fillColor=none;align=center;verticalAlign=middle;whiteSpace=wrap;rounded=0;" parent="1" vertex="1">
          <mxGeometry x="234" y="525" width="102" height="30" as="geometry" />
        </mxCell>
        <mxCell id="5b1crxVSo52NuIJrR2hu-41" value="" style="endArrow=none;html=1;rounded=0;exitX=0.579;exitY=-0.031;exitDx=0;exitDy=0;exitPerimeter=0;entryX=0.015;entryY=0.985;entryDx=0;entryDy=0;entryPerimeter=0;" parent="1" source="5b1crxVSo52NuIJrR2hu-22" target="5b1crxVSo52NuIJrR2hu-39" edge="1">
          <mxGeometry width="50" height="50" relative="1" as="geometry">
            <mxPoint x="320" y="625" as="sourcePoint" />
            <mxPoint x="370" y="575" as="targetPoint" />
          </mxGeometry>
        </mxCell>
        <mxCell id="5b1crxVSo52NuIJrR2hu-42" value="" style="endArrow=none;html=1;rounded=0;exitX=0.5;exitY=0;exitDx=0;exitDy=0;exitPerimeter=0;" parent="1" source="5b1crxVSo52NuIJrR2hu-39" edge="1">
          <mxGeometry width="50" height="50" relative="1" as="geometry">
            <mxPoint x="320" y="526" as="sourcePoint" />
            <mxPoint x="370" y="476" as="targetPoint" />
          </mxGeometry>
        </mxCell>
        <mxCell id="ldkix52bEkoFvHIhopIW-1" value="" style="sketch=0;points=[[0,0,0],[0.25,0,0],[0.5,0,0],[0.75,0,0],[1,0,0],[0,1,0],[0.25,1,0],[0.5,1,0],[0.75,1,0],[1,1,0],[0,0.25,0],[0,0.5,0],[0,0.75,0],[1,0.25,0],[1,0.5,0],[1,0.75,0]];outlineConnect=0;fontColor=#232F3E;gradientColor=#60A337;gradientDirection=north;fillColor=#277116;strokeColor=#ffffff;dashed=0;verticalLabelPosition=bottom;verticalAlign=top;align=center;html=1;fontSize=12;fontStyle=0;aspect=fixed;shape=mxgraph.aws4.resourceIcon;resIcon=mxgraph.aws4.backup;" parent="1" vertex="1">
          <mxGeometry x="302.55" y="705" width="50" height="50" as="geometry" />
        </mxCell>
        <mxCell id="ldkix52bEkoFvHIhopIW-2" value="" style="image;points=[];aspect=fixed;html=1;align=center;shadow=0;dashed=0;image=img/lib/allied_telesis/computer_and_terminals/Laptop.svg;" parent="1" vertex="1">
          <mxGeometry x="287" y="635" width="42" height="42.599999999999994" as="geometry" />
        </mxCell>
        <mxCell id="ldkix52bEkoFvHIhopIW-3" value="" style="verticalLabelPosition=bottom;html=1;verticalAlign=top;align=center;strokeColor=none;fillColor=#00BEF2;shape=mxgraph.azure.vhd;pointerEvents=1;" parent="1" vertex="1">
          <mxGeometry x="348.55" y="637.6" width="30" height="40" as="geometry" />
        </mxCell>
        <mxCell id="ldkix52bEkoFvHIhopIW-4" value="&lt;span style=&quot;font-size: 15px;&quot;&gt;&lt;b&gt;Backup 4&lt;/b&gt;&lt;/span&gt;" style="text;html=1;strokeColor=none;fillColor=none;align=center;verticalAlign=middle;whiteSpace=wrap;rounded=0;" parent="1" vertex="1">
          <mxGeometry x="289.55" y="765" width="76" height="30" as="geometry" />
        </mxCell>
        <mxCell id="ldkix52bEkoFvHIhopIW-5" value="" style="sketch=0;points=[[0,0,0],[0.25,0,0],[0.5,0,0],[0.75,0,0],[1,0,0],[0,1,0],[0.25,1,0],[0.5,1,0],[0.75,1,0],[1,1,0],[0,0.25,0],[0,0.5,0],[0,0.75,0],[1,0.25,0],[1,0.5,0],[1,0.75,0]];outlineConnect=0;fontColor=#232F3E;gradientColor=#60A337;gradientDirection=north;fillColor=#277116;strokeColor=#ffffff;dashed=0;verticalLabelPosition=bottom;verticalAlign=top;align=center;html=1;fontSize=12;fontStyle=0;aspect=fixed;shape=mxgraph.aws4.resourceIcon;resIcon=mxgraph.aws4.backup;" parent="1" vertex="1">
          <mxGeometry x="412.55" y="705" width="50" height="50" as="geometry" />
        </mxCell>
        <mxCell id="ldkix52bEkoFvHIhopIW-6" value="" style="image;points=[];aspect=fixed;html=1;align=center;shadow=0;dashed=0;image=img/lib/allied_telesis/computer_and_terminals/Laptop.svg;" parent="1" vertex="1">
          <mxGeometry x="397" y="635" width="42" height="42.599999999999994" as="geometry" />
        </mxCell>
        <mxCell id="ldkix52bEkoFvHIhopIW-7" value="" style="verticalLabelPosition=bottom;html=1;verticalAlign=top;align=center;strokeColor=none;fillColor=#00BEF2;shape=mxgraph.azure.vhd;pointerEvents=1;" parent="1" vertex="1">
          <mxGeometry x="458.55" y="637.6" width="30" height="40" as="geometry" />
        </mxCell>
        <mxCell id="ldkix52bEkoFvHIhopIW-8" value="&lt;span style=&quot;font-size: 15px;&quot;&gt;&lt;b&gt;Backup 5&lt;/b&gt;&lt;/span&gt;" style="text;html=1;strokeColor=none;fillColor=none;align=center;verticalAlign=middle;whiteSpace=wrap;rounded=0;" parent="1" vertex="1">
          <mxGeometry x="399.55" y="765" width="76" height="30" as="geometry" />
        </mxCell>
        <mxCell id="ldkix52bEkoFvHIhopIW-9" value="" style="sketch=0;points=[[0,0,0],[0.25,0,0],[0.5,0,0],[0.75,0,0],[1,0,0],[0,1,0],[0.25,1,0],[0.5,1,0],[0.75,1,0],[1,1,0],[0,0.25,0],[0,0.5,0],[0,0.75,0],[1,0.25,0],[1,0.5,0],[1,0.75,0]];outlineConnect=0;fontColor=#232F3E;gradientColor=#60A337;gradientDirection=north;fillColor=#277116;strokeColor=#ffffff;dashed=0;verticalLabelPosition=bottom;verticalAlign=top;align=center;html=1;fontSize=12;fontStyle=0;aspect=fixed;shape=mxgraph.aws4.resourceIcon;resIcon=mxgraph.aws4.backup;" parent="1" vertex="1">
          <mxGeometry x="527.21" y="707.6" width="50" height="50" as="geometry" />
        </mxCell>
        <mxCell id="ldkix52bEkoFvHIhopIW-10" value="" style="image;points=[];aspect=fixed;html=1;align=center;shadow=0;dashed=0;image=img/lib/allied_telesis/computer_and_terminals/Laptop.svg;" parent="1" vertex="1">
          <mxGeometry x="511.65999999999997" y="637.6" width="42" height="42.599999999999994" as="geometry" />
        </mxCell>
        <mxCell id="ldkix52bEkoFvHIhopIW-11" value="" style="verticalLabelPosition=bottom;html=1;verticalAlign=top;align=center;strokeColor=none;fillColor=#00BEF2;shape=mxgraph.azure.vhd;pointerEvents=1;" parent="1" vertex="1">
          <mxGeometry x="560.21" y="640.2" width="30" height="40" as="geometry" />
        </mxCell>
        <mxCell id="ldkix52bEkoFvHIhopIW-12" value="&lt;span style=&quot;font-size: 15px;&quot;&gt;&lt;b&gt;Backup 6&lt;/b&gt;&lt;/span&gt;" style="text;html=1;strokeColor=none;fillColor=none;align=center;verticalAlign=middle;whiteSpace=wrap;rounded=0;" parent="1" vertex="1">
          <mxGeometry x="514.21" y="767.6" width="76" height="30" as="geometry" />
        </mxCell>
        <mxCell id="ldkix52bEkoFvHIhopIW-13" value="" style="endArrow=none;html=1;rounded=0;exitX=0.667;exitY=-0.164;exitDx=0;exitDy=0;exitPerimeter=0;" parent="1" source="ldkix52bEkoFvHIhopIW-2" edge="1">
          <mxGeometry width="50" height="50" relative="1" as="geometry">
            <mxPoint x="377.54999999999995" y="654" as="sourcePoint" />
            <mxPoint x="347.54999999999995" y="575" as="targetPoint" />
          </mxGeometry>
        </mxCell>
        <mxCell id="ldkix52bEkoFvHIhopIW-14" value="" style="endArrow=none;html=1;rounded=0;exitX=0.389;exitY=-0.061;exitDx=0;exitDy=0;exitPerimeter=0;" parent="1" source="ldkix52bEkoFvHIhopIW-10" edge="1">
          <mxGeometry width="50" height="50" relative="1" as="geometry">
            <mxPoint x="352.55" y="628" as="sourcePoint" />
            <mxPoint x="385.09999999999997" y="575" as="targetPoint" />
          </mxGeometry>
        </mxCell>
        <mxCell id="ldkix52bEkoFvHIhopIW-15" value="" style="endArrow=none;html=1;rounded=0;exitX=0.5;exitY=0;exitDx=0;exitDy=0;exitPerimeter=0;" parent="1" source="ldkix52bEkoFvHIhopIW-6" edge="1">
          <mxGeometry width="50" height="50" relative="1" as="geometry">
            <mxPoint x="345.27" y="628" as="sourcePoint" />
            <mxPoint x="377.81999999999994" y="575" as="targetPoint" />
          </mxGeometry>
        </mxCell>
        <mxCell id="ldkix52bEkoFvHIhopIW-17" value="" style="sketch=0;points=[[0,0,0],[0.25,0,0],[0.5,0,0],[0.75,0,0],[1,0,0],[0,1,0],[0.25,1,0],[0.5,1,0],[0.75,1,0],[1,1,0],[0,0.25,0],[0,0.5,0],[0,0.75,0],[1,0.25,0],[1,0.5,0],[1,0.75,0]];outlineConnect=0;fontColor=#232F3E;gradientColor=#60A337;gradientDirection=north;fillColor=#277116;strokeColor=#ffffff;dashed=0;verticalLabelPosition=bottom;verticalAlign=top;align=center;html=1;fontSize=12;fontStyle=0;aspect=fixed;shape=mxgraph.aws4.resourceIcon;resIcon=mxgraph.aws4.backup;" parent="1" vertex="1">
          <mxGeometry x="216.45000000000005" y="426" width="50" height="50" as="geometry" />
        </mxCell>
        <mxCell id="ldkix52bEkoFvHIhopIW-19" value="&lt;span style=&quot;font-size: 15px;&quot;&gt;&lt;b&gt;Backup&lt;br&gt;Infra&lt;br&gt;&lt;/b&gt;&lt;/span&gt;" style="text;html=1;strokeColor=none;fillColor=none;align=center;verticalAlign=middle;whiteSpace=wrap;rounded=0;" parent="1" vertex="1">
          <mxGeometry x="123" y="438" width="102" height="30" as="geometry" />
        </mxCell>
        <mxCell id="ldkix52bEkoFvHIhopIW-26" value="&lt;span style=&quot;font-size: 15px;&quot;&gt;&lt;b&gt;Cloud&lt;br&gt;&lt;/b&gt;&lt;/span&gt;" style="text;html=1;strokeColor=none;fillColor=none;align=center;verticalAlign=middle;whiteSpace=wrap;rounded=0;" parent="1" vertex="1">
          <mxGeometry x="1481.44" y="10" width="102" height="30" as="geometry" />
        </mxCell>
        <mxCell id="ldkix52bEkoFvHIhopIW-29" value="&lt;span style=&quot;font-size: 15px;&quot;&gt;&lt;b&gt;HDD Externe&lt;br&gt;&lt;/b&gt;&lt;/span&gt;" style="text;html=1;strokeColor=none;fillColor=none;align=center;verticalAlign=middle;whiteSpace=wrap;rounded=0;" parent="1" vertex="1">
          <mxGeometry x="26" y="575" width="102" height="30" as="geometry" />
        </mxCell>
        <mxCell id="ldkix52bEkoFvHIhopIW-30" value="" style="verticalLabelPosition=bottom;html=1;verticalAlign=top;align=center;strokeColor=none;fillColor=#00BEF2;shape=mxgraph.azure.vhd;pointerEvents=1;" parent="1" vertex="1">
          <mxGeometry x="47" y="620.2" width="50" height="60" as="geometry" />
        </mxCell>
        <mxCell id="ldkix52bEkoFvHIhopIW-31" value="" style="sketch=0;points=[[0,0,0],[0.25,0,0],[0.5,0,0],[0.75,0,0],[1,0,0],[0,1,0],[0.25,1,0],[0.5,1,0],[0.75,1,0],[1,1,0],[0,0.25,0],[0,0.5,0],[0,0.75,0],[1,0.25,0],[1,0.5,0],[1,0.75,0]];outlineConnect=0;fontColor=#232F3E;gradientColor=#60A337;gradientDirection=north;fillColor=#277116;strokeColor=#ffffff;dashed=0;verticalLabelPosition=bottom;verticalAlign=top;align=center;html=1;fontSize=12;fontStyle=0;aspect=fixed;shape=mxgraph.aws4.resourceIcon;resIcon=mxgraph.aws4.backup;" parent="1" vertex="1">
          <mxGeometry x="47" y="812.6" width="50" height="50" as="geometry" />
        </mxCell>
        <mxCell id="ldkix52bEkoFvHIhopIW-32" value="&lt;span style=&quot;font-size: 15px;&quot;&gt;&lt;b&gt;Backup 8&lt;br&gt;&lt;/b&gt;&lt;/span&gt;" style="text;html=1;strokeColor=none;fillColor=none;align=center;verticalAlign=middle;whiteSpace=wrap;rounded=0;" parent="1" vertex="1">
          <mxGeometry x="34" y="755" width="76" height="30" as="geometry" />
        </mxCell>
        <mxCell id="Fb5m0xqrfwQMH-HLjGYh-6" value="" style="sketch=0;pointerEvents=1;shadow=0;dashed=0;html=1;strokeColor=none;fillColor=#005F4B;labelPosition=center;verticalLabelPosition=bottom;verticalAlign=top;align=center;outlineConnect=0;shape=mxgraph.veeam2.esxi_host;" vertex="1" parent="1">
          <mxGeometry x="209" y="240" width="100" height="100" as="geometry" />
        </mxCell>
        <mxCell id="Fb5m0xqrfwQMH-HLjGYh-7" value="" style="sketch=0;pointerEvents=1;shadow=0;dashed=0;html=1;strokeColor=none;fillColor=#005F4B;labelPosition=center;verticalLabelPosition=bottom;verticalAlign=top;align=center;outlineConnect=0;shape=mxgraph.veeam2.esxi_host;" vertex="1" parent="1">
          <mxGeometry x="427" y="240" width="100" height="100" as="geometry" />
        </mxCell>
        <mxCell id="Fb5m0xqrfwQMH-HLjGYh-8" value="" style="image;aspect=fixed;html=1;points=[];align=center;fontSize=12;image=img/lib/azure2/networking/Virtual_WANs.svg;" vertex="1" parent="1">
          <mxGeometry x="326" y="315" width="71.09" height="70" as="geometry" />
        </mxCell>
        <mxCell id="Fb5m0xqrfwQMH-HLjGYh-9" value="" style="verticalLabelPosition=bottom;html=1;verticalAlign=top;align=center;strokeColor=none;fillColor=#00BEF2;shape=mxgraph.azure.server;" vertex="1" parent="1">
          <mxGeometry x="294.55" y="436" width="136" height="40" as="geometry" />
        </mxCell>
        <mxCell id="Fb5m0xqrfwQMH-HLjGYh-10" value="&lt;span style=&quot;font-size: 15px;&quot;&gt;&lt;b&gt;PfSense&lt;/b&gt;&lt;/span&gt;" style="text;html=1;strokeColor=none;fillColor=none;align=center;verticalAlign=middle;whiteSpace=wrap;rounded=0;" vertex="1" parent="1">
          <mxGeometry x="311.55" y="275" width="102" height="30" as="geometry" />
        </mxCell>
        <mxCell id="Fb5m0xqrfwQMH-HLjGYh-11" value="" style="image;aspect=fixed;perimeter=ellipsePerimeter;html=1;align=center;shadow=0;dashed=0;spacingTop=3;image=img/lib/active_directory/windows_server_2.svg;" vertex="1" parent="1">
          <mxGeometry x="187" y="125" width="56" height="70" as="geometry" />
        </mxCell>
        <mxCell id="Fb5m0xqrfwQMH-HLjGYh-12" value="&lt;span style=&quot;font-size: 15px;&quot;&gt;&lt;b&gt;SRV-AD1&lt;/b&gt;&lt;/span&gt;" style="text;html=1;strokeColor=none;fillColor=none;align=center;verticalAlign=middle;whiteSpace=wrap;rounded=0;" vertex="1" parent="1">
          <mxGeometry x="151" y="85" width="102" height="30" as="geometry" />
        </mxCell>
        <mxCell id="Fb5m0xqrfwQMH-HLjGYh-13" value="" style="image;aspect=fixed;perimeter=ellipsePerimeter;html=1;align=center;shadow=0;dashed=0;spacingTop=3;image=img/lib/active_directory/windows_server_2.svg;" vertex="1" parent="1">
          <mxGeometry x="397" y="125" width="56" height="70" as="geometry" />
        </mxCell>
        <mxCell id="Fb5m0xqrfwQMH-HLjGYh-14" value="&lt;span style=&quot;font-size: 15px;&quot;&gt;&lt;b&gt;SRV-AD2&lt;/b&gt;&lt;/span&gt;" style="text;html=1;strokeColor=none;fillColor=none;align=center;verticalAlign=middle;whiteSpace=wrap;rounded=0;" vertex="1" parent="1">
          <mxGeometry x="370" y="85" width="102" height="30" as="geometry" />
        </mxCell>
        <mxCell id="Fb5m0xqrfwQMH-HLjGYh-15" value="&lt;span style=&quot;font-size: 15px;&quot;&gt;&lt;b&gt;SRV-WEB&lt;/b&gt;&lt;/span&gt;" style="text;html=1;strokeColor=none;fillColor=none;align=center;verticalAlign=middle;whiteSpace=wrap;rounded=0;" vertex="1" parent="1">
          <mxGeometry x="448.8" y="85" width="102" height="30" as="geometry" />
        </mxCell>
        <mxCell id="Fb5m0xqrfwQMH-HLjGYh-16" value="&lt;span style=&quot;font-size: 15px;&quot;&gt;&lt;b&gt;SRV-GLPI&lt;/b&gt;&lt;/span&gt;" style="text;html=1;strokeColor=none;fillColor=none;align=center;verticalAlign=middle;whiteSpace=wrap;rounded=0;" vertex="1" parent="1">
          <mxGeometry x="537" y="85" width="102" height="30" as="geometry" />
        </mxCell>
        <mxCell id="Fb5m0xqrfwQMH-HLjGYh-17" value="" style="image;sketch=0;aspect=fixed;html=1;points=[];align=center;fontSize=12;image=img/lib/mscae/VM_Linux.svg;" vertex="1" parent="1">
          <mxGeometry x="527" y="132" width="60.87" height="56" as="geometry" />
        </mxCell>
        <mxCell id="Fb5m0xqrfwQMH-HLjGYh-18" value="" style="image;sketch=0;aspect=fixed;html=1;points=[];align=center;fontSize=12;image=img/lib/mscae/VM_Linux.svg;" vertex="1" parent="1">
          <mxGeometry x="459" y="132" width="60.87" height="56" as="geometry" />
        </mxCell>
        <mxCell id="Fb5m0xqrfwQMH-HLjGYh-19" value="" style="image;aspect=fixed;perimeter=ellipsePerimeter;html=1;align=center;shadow=0;dashed=0;spacingTop=3;image=img/lib/active_directory/windows_server_2.svg;" vertex="1" parent="1">
          <mxGeometry x="472.6" y="408" width="54.4" height="68" as="geometry" />
        </mxCell>
        <mxCell id="Fb5m0xqrfwQMH-HLjGYh-20" value="" style="verticalLabelPosition=bottom;html=1;verticalAlign=top;align=center;strokeColor=none;fillColor=#00BEF2;shape=mxgraph.azure.vhd;pointerEvents=1;" vertex="1" parent="1">
          <mxGeometry x="546" y="408" width="30" height="40" as="geometry" />
        </mxCell>
        <mxCell id="Fb5m0xqrfwQMH-HLjGYh-27" value="&lt;span style=&quot;font-size: 15px;&quot;&gt;&lt;b&gt;Proxmox&lt;/b&gt;&lt;/span&gt;" style="text;html=1;strokeColor=none;fillColor=none;align=center;verticalAlign=middle;whiteSpace=wrap;rounded=0;" vertex="1" parent="1">
          <mxGeometry x="793.8" y="355" width="102" height="30" as="geometry" />
        </mxCell>
        <mxCell id="Fb5m0xqrfwQMH-HLjGYh-28" value="&lt;span style=&quot;font-size: 15px;&quot;&gt;&lt;b&gt;SRV-VEEAM&lt;/b&gt;&lt;/span&gt;" style="text;html=1;strokeColor=none;fillColor=none;align=center;verticalAlign=middle;whiteSpace=wrap;rounded=0;" vertex="1" parent="1">
          <mxGeometry x="870" y="495" width="102" height="30" as="geometry" />
        </mxCell>
        <mxCell id="Fb5m0xqrfwQMH-HLjGYh-34" value="" style="sketch=0;pointerEvents=1;shadow=0;dashed=0;html=1;strokeColor=none;fillColor=#005F4B;labelPosition=center;verticalLabelPosition=bottom;verticalAlign=top;align=center;outlineConnect=0;shape=mxgraph.veeam2.esxi_host;" vertex="1" parent="1">
          <mxGeometry x="937" y="303" width="100" height="100" as="geometry" />
        </mxCell>
        <mxCell id="Fb5m0xqrfwQMH-HLjGYh-36" value="" style="image;aspect=fixed;html=1;points=[];align=center;fontSize=12;image=img/lib/azure2/networking/Virtual_WANs.svg;" vertex="1" parent="1">
          <mxGeometry x="814.9100000000001" y="213" width="71.09" height="70" as="geometry" />
        </mxCell>
        <mxCell id="Fb5m0xqrfwQMH-HLjGYh-37" value="" style="verticalLabelPosition=bottom;html=1;verticalAlign=top;align=center;strokeColor=none;fillColor=#00BEF2;shape=mxgraph.azure.server;" vertex="1" parent="1">
          <mxGeometry x="776.8" y="310" width="136" height="40" as="geometry" />
        </mxCell>
        <mxCell id="Fb5m0xqrfwQMH-HLjGYh-38" value="&lt;span style=&quot;font-size: 15px;&quot;&gt;&lt;b&gt;PfSense&lt;/b&gt;&lt;/span&gt;" style="text;html=1;strokeColor=none;fillColor=none;align=center;verticalAlign=middle;whiteSpace=wrap;rounded=0;" vertex="1" parent="1">
          <mxGeometry x="1103" y="420" width="102" height="30" as="geometry" />
        </mxCell>
        <mxCell id="Fb5m0xqrfwQMH-HLjGYh-39" value="" style="image;aspect=fixed;perimeter=ellipsePerimeter;html=1;align=center;shadow=0;dashed=0;spacingTop=3;image=img/lib/active_directory/windows_server_2.svg;" vertex="1" parent="1">
          <mxGeometry x="922" y="80" width="56" height="70" as="geometry" />
        </mxCell>
        <mxCell id="Fb5m0xqrfwQMH-HLjGYh-40" value="&lt;span style=&quot;font-size: 15px;&quot;&gt;&lt;b&gt;SRV-AD1&lt;/b&gt;&lt;/span&gt;" style="text;html=1;strokeColor=none;fillColor=none;align=center;verticalAlign=middle;whiteSpace=wrap;rounded=0;" vertex="1" parent="1">
          <mxGeometry x="886" y="40" width="102" height="30" as="geometry" />
        </mxCell>
        <mxCell id="Fb5m0xqrfwQMH-HLjGYh-47" value="" style="image;aspect=fixed;perimeter=ellipsePerimeter;html=1;align=center;shadow=0;dashed=0;spacingTop=3;image=img/lib/active_directory/windows_server_2.svg;" vertex="1" parent="1">
          <mxGeometry x="907" y="419" width="54.4" height="68" as="geometry" />
        </mxCell>
        <mxCell id="Fb5m0xqrfwQMH-HLjGYh-49" value="" style="image;aspect=fixed;perimeter=ellipsePerimeter;html=1;align=center;shadow=0;dashed=0;spacingTop=3;image=img/lib/active_directory/windows_server_2.svg;" vertex="1" parent="1">
          <mxGeometry x="1005" y="80" width="56" height="70" as="geometry" />
        </mxCell>
        <mxCell id="Fb5m0xqrfwQMH-HLjGYh-50" value="&lt;span style=&quot;font-size: 15px;&quot;&gt;&lt;b&gt;SRV-WEB&lt;/b&gt;&lt;/span&gt;" style="text;html=1;strokeColor=none;fillColor=none;align=center;verticalAlign=middle;whiteSpace=wrap;rounded=0;" vertex="1" parent="1">
          <mxGeometry x="912.8" y="180" width="102" height="30" as="geometry" />
        </mxCell>
        <mxCell id="Fb5m0xqrfwQMH-HLjGYh-51" value="&lt;span style=&quot;font-size: 15px;&quot;&gt;&lt;b&gt;SRV-GLPI&lt;/b&gt;&lt;/span&gt;" style="text;html=1;strokeColor=none;fillColor=none;align=center;verticalAlign=middle;whiteSpace=wrap;rounded=0;" vertex="1" parent="1">
          <mxGeometry x="1001" y="180" width="102" height="30" as="geometry" />
        </mxCell>
        <mxCell id="Fb5m0xqrfwQMH-HLjGYh-52" value="" style="image;sketch=0;aspect=fixed;html=1;points=[];align=center;fontSize=12;image=img/lib/mscae/VM_Linux.svg;" vertex="1" parent="1">
          <mxGeometry x="991" y="227" width="60.87" height="56" as="geometry" />
        </mxCell>
        <mxCell id="Fb5m0xqrfwQMH-HLjGYh-53" value="" style="image;sketch=0;aspect=fixed;html=1;points=[];align=center;fontSize=12;image=img/lib/mscae/VM_Linux.svg;" vertex="1" parent="1">
          <mxGeometry x="923" y="227" width="60.87" height="56" as="geometry" />
        </mxCell>
        <mxCell id="Fb5m0xqrfwQMH-HLjGYh-54" value="&lt;span style=&quot;font-size: 15px;&quot;&gt;&lt;b&gt;SRV-AD2&lt;/b&gt;&lt;/span&gt;" style="text;html=1;strokeColor=none;fillColor=none;align=center;verticalAlign=middle;whiteSpace=wrap;rounded=0;" vertex="1" parent="1">
          <mxGeometry x="967" y="40" width="102" height="30" as="geometry" />
        </mxCell>
        <mxCell id="Fb5m0xqrfwQMH-HLjGYh-55" value="" style="sketch=0;pointerEvents=1;shadow=0;dashed=0;html=1;strokeColor=none;fillColor=#005F4B;labelPosition=center;verticalLabelPosition=bottom;verticalAlign=top;align=center;outlineConnect=0;shape=mxgraph.veeam2.esxi_host;" vertex="1" parent="1">
          <mxGeometry x="937" y="303" width="100" height="100" as="geometry" />
        </mxCell>
        <mxCell id="Fb5m0xqrfwQMH-HLjGYh-60" value="" style="image;aspect=fixed;perimeter=ellipsePerimeter;html=1;align=center;shadow=0;dashed=0;spacingTop=3;image=img/lib/active_directory/windows_server_2.svg;" vertex="1" parent="1">
          <mxGeometry x="1246.55" y="80" width="56" height="70" as="geometry" />
        </mxCell>
        <mxCell id="Fb5m0xqrfwQMH-HLjGYh-61" value="&lt;span style=&quot;font-size: 15px;&quot;&gt;&lt;b&gt;SRV-WEB&lt;/b&gt;&lt;/span&gt;" style="text;html=1;strokeColor=none;fillColor=none;align=center;verticalAlign=middle;whiteSpace=wrap;rounded=0;" vertex="1" parent="1">
          <mxGeometry x="1199" y="180" width="102" height="30" as="geometry" />
        </mxCell>
        <mxCell id="Fb5m0xqrfwQMH-HLjGYh-62" value="&lt;span style=&quot;font-size: 15px;&quot;&gt;&lt;b&gt;SRV-GLPI&lt;/b&gt;&lt;/span&gt;" style="text;html=1;strokeColor=none;fillColor=none;align=center;verticalAlign=middle;whiteSpace=wrap;rounded=0;" vertex="1" parent="1">
          <mxGeometry x="1290.55" y="180" width="102" height="30" as="geometry" />
        </mxCell>
        <mxCell id="Fb5m0xqrfwQMH-HLjGYh-63" value="" style="image;sketch=0;aspect=fixed;html=1;points=[];align=center;fontSize=12;image=img/lib/mscae/VM_Linux.svg;" vertex="1" parent="1">
          <mxGeometry x="1311.12" y="230" width="60.87" height="56" as="geometry" />
        </mxCell>
        <mxCell id="Fb5m0xqrfwQMH-HLjGYh-64" value="" style="image;sketch=0;aspect=fixed;html=1;points=[];align=center;fontSize=12;image=img/lib/mscae/VM_Linux.svg;" vertex="1" parent="1">
          <mxGeometry x="1226" y="227" width="60.87" height="56" as="geometry" />
        </mxCell>
        <mxCell id="Fb5m0xqrfwQMH-HLjGYh-65" value="&lt;span style=&quot;font-size: 15px;&quot;&gt;&lt;b&gt;SRV-AD3&lt;/b&gt;&lt;/span&gt;" style="text;html=1;strokeColor=none;fillColor=none;align=center;verticalAlign=middle;whiteSpace=wrap;rounded=0;" vertex="1" parent="1">
          <mxGeometry x="1208.55" y="40" width="102" height="30" as="geometry" />
        </mxCell>
        <mxCell id="Fb5m0xqrfwQMH-HLjGYh-66" value="" style="sketch=0;pointerEvents=1;shadow=0;dashed=0;html=1;strokeColor=none;fillColor=#005F4B;labelPosition=center;verticalLabelPosition=bottom;verticalAlign=top;align=center;outlineConnect=0;shape=mxgraph.veeam2.esxi_host;" vertex="1" parent="1">
          <mxGeometry x="1280" y="305" width="100" height="100" as="geometry" />
        </mxCell>
        <mxCell id="Fb5m0xqrfwQMH-HLjGYh-67" value="" style="verticalLabelPosition=bottom;html=1;verticalAlign=top;align=center;strokeColor=none;fillColor=#00BEF2;shape=mxgraph.azure.vhd;pointerEvents=1;" vertex="1" parent="1">
          <mxGeometry x="978" y="490" width="30" height="40" as="geometry" />
        </mxCell>
        <mxCell id="Fb5m0xqrfwQMH-HLjGYh-68" value="" style="verticalLabelPosition=bottom;html=1;verticalAlign=top;align=center;strokeColor=none;fillColor=#00BEF2;shape=mxgraph.azure.vhd;pointerEvents=1;" vertex="1" parent="1">
          <mxGeometry x="978" y="433" width="30" height="40" as="geometry" />
        </mxCell>
        <mxCell id="Fb5m0xqrfwQMH-HLjGYh-70" value="" style="sketch=0;points=[[0,0,0],[0.25,0,0],[0.5,0,0],[0.75,0,0],[1,0,0],[0,1,0],[0.25,1,0],[0.5,1,0],[0.75,1,0],[1,1,0],[0,0.25,0],[0,0.5,0],[0,0.75,0],[1,0.25,0],[1,0.5,0],[1,0.75,0]];outlineConnect=0;fontColor=#232F3E;gradientColor=#60A337;gradientDirection=north;fillColor=#277116;strokeColor=#ffffff;dashed=0;verticalLabelPosition=bottom;verticalAlign=top;align=center;html=1;fontSize=12;fontStyle=0;aspect=fixed;shape=mxgraph.aws4.resourceIcon;resIcon=mxgraph.aws4.backup;" vertex="1" parent="1">
          <mxGeometry x="1037" y="487" width="50" height="50" as="geometry" />
        </mxCell>
        <mxCell id="Fb5m0xqrfwQMH-HLjGYh-71" value="" style="sketch=0;points=[[0,0,0],[0.25,0,0],[0.5,0,0],[0.75,0,0],[1,0,0],[0,1,0],[0.25,1,0],[0.5,1,0],[0.75,1,0],[1,1,0],[0,0.25,0],[0,0.5,0],[0,0.75,0],[1,0.25,0],[1,0.5,0],[1,0.75,0]];outlineConnect=0;fontColor=#232F3E;gradientColor=#60A337;gradientDirection=north;fillColor=#277116;strokeColor=#ffffff;dashed=0;verticalLabelPosition=bottom;verticalAlign=top;align=center;html=1;fontSize=12;fontStyle=0;aspect=fixed;shape=mxgraph.aws4.resourceIcon;resIcon=mxgraph.aws4.backup;" vertex="1" parent="1">
          <mxGeometry x="1113" y="487" width="50" height="50" as="geometry" />
        </mxCell>
        <mxCell id="Fb5m0xqrfwQMH-HLjGYh-72" value="&lt;span style=&quot;font-size: 15px;&quot;&gt;&lt;b&gt;Backup 2&lt;/b&gt;&lt;/span&gt;" style="text;html=1;strokeColor=none;fillColor=none;align=center;verticalAlign=middle;whiteSpace=wrap;rounded=0;" vertex="1" parent="1">
          <mxGeometry x="1100" y="450" width="76" height="30" as="geometry" />
        </mxCell>
        <mxCell id="Fb5m0xqrfwQMH-HLjGYh-73" value="&lt;span style=&quot;font-size: 15px;&quot;&gt;&lt;b&gt;Backup 1&lt;/b&gt;&lt;/span&gt;" style="text;html=1;strokeColor=none;fillColor=none;align=center;verticalAlign=middle;whiteSpace=wrap;rounded=0;" vertex="1" parent="1">
          <mxGeometry x="1024" y="450" width="76" height="30" as="geometry" />
        </mxCell>
        <mxCell id="Fb5m0xqrfwQMH-HLjGYh-74" value="" style="image;aspect=fixed;html=1;points=[];align=center;fontSize=12;image=img/lib/azure2/networking/Virtual_WANs.svg;" vertex="1" parent="1">
          <mxGeometry x="1113" y="315" width="71.09" height="70" as="geometry" />
        </mxCell>
        <mxCell id="Fb5m0xqrfwQMH-HLjGYh-75" value="&lt;span style=&quot;font-size: 15px;&quot;&gt;&lt;b&gt;PfSense&lt;/b&gt;&lt;/span&gt;" style="text;html=1;strokeColor=none;fillColor=none;align=center;verticalAlign=middle;whiteSpace=wrap;rounded=0;" vertex="1" parent="1">
          <mxGeometry x="804.99" y="170" width="102" height="30" as="geometry" />
        </mxCell>
        <mxCell id="Fb5m0xqrfwQMH-HLjGYh-76" value="&lt;b&gt;&lt;font style=&quot;font-size: 15px;&quot;&gt;Infrastructure replication&lt;/font&gt;&lt;/b&gt;" style="text;html=1;strokeColor=none;fillColor=none;align=center;verticalAlign=middle;whiteSpace=wrap;rounded=0;" vertex="1" parent="1">
          <mxGeometry x="1082.09" y="15" width="102" height="30" as="geometry" />
        </mxCell>
        <mxCell id="Fb5m0xqrfwQMH-HLjGYh-84" value="&lt;span style=&quot;font-size: 15px;&quot;&gt;&lt;b&gt;SRV-VEEAM&lt;/b&gt;&lt;/span&gt;" style="text;html=1;strokeColor=none;fillColor=none;align=center;verticalAlign=middle;whiteSpace=wrap;rounded=0;" vertex="1" parent="1">
          <mxGeometry x="1199" y="509" width="102" height="30" as="geometry" />
        </mxCell>
        <mxCell id="Fb5m0xqrfwQMH-HLjGYh-86" value="" style="verticalLabelPosition=bottom;html=1;verticalAlign=top;align=center;strokeColor=none;fillColor=#00BEF2;shape=mxgraph.azure.vhd;pointerEvents=1;" vertex="1" parent="1">
          <mxGeometry x="1307" y="504" width="30" height="40" as="geometry" />
        </mxCell>
        <mxCell id="Fb5m0xqrfwQMH-HLjGYh-87" value="" style="verticalLabelPosition=bottom;html=1;verticalAlign=top;align=center;strokeColor=none;fillColor=#00BEF2;shape=mxgraph.azure.vhd;pointerEvents=1;" vertex="1" parent="1">
          <mxGeometry x="1307" y="447" width="30" height="40" as="geometry" />
        </mxCell>
        <mxCell id="Fb5m0xqrfwQMH-HLjGYh-88" value="" style="sketch=0;points=[[0,0,0],[0.25,0,0],[0.5,0,0],[0.75,0,0],[1,0,0],[0,1,0],[0.25,1,0],[0.5,1,0],[0.75,1,0],[1,1,0],[0,0.25,0],[0,0.5,0],[0,0.75,0],[1,0.25,0],[1,0.5,0],[1,0.75,0]];outlineConnect=0;fontColor=#232F3E;gradientColor=#60A337;gradientDirection=north;fillColor=#277116;strokeColor=#ffffff;dashed=0;verticalLabelPosition=bottom;verticalAlign=top;align=center;html=1;fontSize=12;fontStyle=0;aspect=fixed;shape=mxgraph.aws4.resourceIcon;resIcon=mxgraph.aws4.backup;" vertex="1" parent="1">
          <mxGeometry x="1366" y="501" width="50" height="50" as="geometry" />
        </mxCell>
        <mxCell id="Fb5m0xqrfwQMH-HLjGYh-89" value="" style="sketch=0;points=[[0,0,0],[0.25,0,0],[0.5,0,0],[0.75,0,0],[1,0,0],[0,1,0],[0.25,1,0],[0.5,1,0],[0.75,1,0],[1,1,0],[0,0.25,0],[0,0.5,0],[0,0.75,0],[1,0.25,0],[1,0.5,0],[1,0.75,0]];outlineConnect=0;fontColor=#232F3E;gradientColor=#60A337;gradientDirection=north;fillColor=#277116;strokeColor=#ffffff;dashed=0;verticalLabelPosition=bottom;verticalAlign=top;align=center;html=1;fontSize=12;fontStyle=0;aspect=fixed;shape=mxgraph.aws4.resourceIcon;resIcon=mxgraph.aws4.backup;" vertex="1" parent="1">
          <mxGeometry x="1442" y="501" width="50" height="50" as="geometry" />
        </mxCell>
        <mxCell id="Fb5m0xqrfwQMH-HLjGYh-90" value="&lt;span style=&quot;font-size: 15px;&quot;&gt;&lt;b&gt;Backup 4&lt;/b&gt;&lt;/span&gt;" style="text;html=1;strokeColor=none;fillColor=none;align=center;verticalAlign=middle;whiteSpace=wrap;rounded=0;" vertex="1" parent="1">
          <mxGeometry x="1429" y="464" width="76" height="30" as="geometry" />
        </mxCell>
        <mxCell id="Fb5m0xqrfwQMH-HLjGYh-91" value="&lt;span style=&quot;font-size: 15px;&quot;&gt;&lt;b&gt;Backup 3&lt;/b&gt;&lt;/span&gt;" style="text;html=1;strokeColor=none;fillColor=none;align=center;verticalAlign=middle;whiteSpace=wrap;rounded=0;" vertex="1" parent="1">
          <mxGeometry x="1353" y="464" width="76" height="30" as="geometry" />
        </mxCell>
        <mxCell id="Fb5m0xqrfwQMH-HLjGYh-92" value="" style="image;aspect=fixed;perimeter=ellipsePerimeter;html=1;align=center;shadow=0;dashed=0;spacingTop=3;image=img/lib/active_directory/windows_server_2.svg;" vertex="1" parent="1">
          <mxGeometry x="1236.15" y="433" width="54.4" height="68" as="geometry" />
        </mxCell>
        <mxCell id="Fb5m0xqrfwQMH-HLjGYh-103" value="" style="sketch=0;points=[[0,0,0],[0.25,0,0],[0.5,0,0],[0.75,0,0],[1,0,0],[0,1,0],[0.25,1,0],[0.5,1,0],[0.75,1,0],[1,1,0],[0,0.25,0],[0,0.5,0],[0,0.75,0],[1,0.25,0],[1,0.5,0],[1,0.75,0]];outlineConnect=0;fontColor=#232F3E;gradientColor=#60A337;gradientDirection=north;fillColor=#277116;strokeColor=#ffffff;dashed=0;verticalLabelPosition=bottom;verticalAlign=top;align=center;html=1;fontSize=12;fontStyle=0;aspect=fixed;shape=mxgraph.aws4.resourceIcon;resIcon=mxgraph.aws4.backup;" vertex="1" parent="1">
          <mxGeometry x="187.45" y="860" width="50" height="50" as="geometry" />
        </mxCell>
        <mxCell id="Fb5m0xqrfwQMH-HLjGYh-104" value="&lt;span style=&quot;font-size: 15px;&quot;&gt;&lt;b&gt;Backup 3&lt;/b&gt;&lt;/span&gt;" style="text;html=1;strokeColor=none;fillColor=none;align=center;verticalAlign=middle;whiteSpace=wrap;rounded=0;" vertex="1" parent="1">
          <mxGeometry x="174.45" y="920" width="76" height="30" as="geometry" />
        </mxCell>
        <mxCell id="Fb5m0xqrfwQMH-HLjGYh-105" value="" style="sketch=0;points=[[0,0,0],[0.25,0,0],[0.5,0,0],[0.75,0,0],[1,0,0],[0,1,0],[0.25,1,0],[0.5,1,0],[0.75,1,0],[1,1,0],[0,0.25,0],[0,0.5,0],[0,0.75,0],[1,0.25,0],[1,0.5,0],[1,0.75,0]];outlineConnect=0;fontColor=#232F3E;gradientColor=#60A337;gradientDirection=north;fillColor=#277116;strokeColor=#ffffff;dashed=0;verticalLabelPosition=bottom;verticalAlign=top;align=center;html=1;fontSize=12;fontStyle=0;aspect=fixed;shape=mxgraph.aws4.resourceIcon;resIcon=mxgraph.aws4.backup;" vertex="1" parent="1">
          <mxGeometry x="300" y="860" width="50" height="50" as="geometry" />
        </mxCell>
        <mxCell id="Fb5m0xqrfwQMH-HLjGYh-106" value="&lt;span style=&quot;font-size: 15px;&quot;&gt;&lt;b&gt;Backup 4&lt;/b&gt;&lt;/span&gt;" style="text;html=1;strokeColor=none;fillColor=none;align=center;verticalAlign=middle;whiteSpace=wrap;rounded=0;" vertex="1" parent="1">
          <mxGeometry x="287" y="920" width="76" height="30" as="geometry" />
        </mxCell>
        <mxCell id="Fb5m0xqrfwQMH-HLjGYh-107" value="" style="sketch=0;points=[[0,0,0],[0.25,0,0],[0.5,0,0],[0.75,0,0],[1,0,0],[0,1,0],[0.25,1,0],[0.5,1,0],[0.75,1,0],[1,1,0],[0,0.25,0],[0,0.5,0],[0,0.75,0],[1,0.25,0],[1,0.5,0],[1,0.75,0]];outlineConnect=0;fontColor=#232F3E;gradientColor=#60A337;gradientDirection=north;fillColor=#277116;strokeColor=#ffffff;dashed=0;verticalLabelPosition=bottom;verticalAlign=top;align=center;html=1;fontSize=12;fontStyle=0;aspect=fixed;shape=mxgraph.aws4.resourceIcon;resIcon=mxgraph.aws4.backup;" vertex="1" parent="1">
          <mxGeometry x="410" y="860" width="50" height="50" as="geometry" />
        </mxCell>
        <mxCell id="Fb5m0xqrfwQMH-HLjGYh-108" value="&lt;span style=&quot;font-size: 15px;&quot;&gt;&lt;b&gt;Backup 5&lt;/b&gt;&lt;/span&gt;" style="text;html=1;strokeColor=none;fillColor=none;align=center;verticalAlign=middle;whiteSpace=wrap;rounded=0;" vertex="1" parent="1">
          <mxGeometry x="397" y="920" width="76" height="30" as="geometry" />
        </mxCell>
        <mxCell id="Fb5m0xqrfwQMH-HLjGYh-109" value="" style="sketch=0;points=[[0,0,0],[0.25,0,0],[0.5,0,0],[0.75,0,0],[1,0,0],[0,1,0],[0.25,1,0],[0.5,1,0],[0.75,1,0],[1,1,0],[0,0.25,0],[0,0.5,0],[0,0.75,0],[1,0.25,0],[1,0.5,0],[1,0.75,0]];outlineConnect=0;fontColor=#232F3E;gradientColor=#60A337;gradientDirection=north;fillColor=#277116;strokeColor=#ffffff;dashed=0;verticalLabelPosition=bottom;verticalAlign=top;align=center;html=1;fontSize=12;fontStyle=0;aspect=fixed;shape=mxgraph.aws4.resourceIcon;resIcon=mxgraph.aws4.backup;" vertex="1" parent="1">
          <mxGeometry x="524.6600000000001" y="862.6" width="50" height="50" as="geometry" />
        </mxCell>
        <mxCell id="Fb5m0xqrfwQMH-HLjGYh-110" value="&lt;span style=&quot;font-size: 15px;&quot;&gt;&lt;b&gt;Backup 6&lt;/b&gt;&lt;/span&gt;" style="text;html=1;strokeColor=none;fillColor=none;align=center;verticalAlign=middle;whiteSpace=wrap;rounded=0;" vertex="1" parent="1">
          <mxGeometry x="511.66" y="922.6" width="76" height="30" as="geometry" />
        </mxCell>
        <mxCell id="Fb5m0xqrfwQMH-HLjGYh-111" value="&lt;span style=&quot;font-size: 15px;&quot;&gt;&lt;b&gt;Externe (Backup Cloud)&lt;/b&gt;&lt;/span&gt;" style="text;html=1;strokeColor=none;fillColor=none;align=center;verticalAlign=middle;whiteSpace=wrap;rounded=0;" vertex="1" parent="1">
          <mxGeometry x="161.45" y="805" width="188.55" height="30" as="geometry" />
        </mxCell>
        <mxCell id="Fb5m0xqrfwQMH-HLjGYh-112" value="" style="sketch=0;points=[[0,0,0],[0.25,0,0],[0.5,0,0],[0.75,0,0],[1,0,0],[0,1,0],[0.25,1,0],[0.5,1,0],[0.75,1,0],[1,1,0],[0,0.25,0],[0,0.5,0],[0,0.75,0],[1,0.25,0],[1,0.5,0],[1,0.75,0]];outlineConnect=0;fontColor=#232F3E;gradientColor=#60A337;gradientDirection=north;fillColor=#277116;strokeColor=#ffffff;dashed=0;verticalLabelPosition=bottom;verticalAlign=top;align=center;html=1;fontSize=12;fontStyle=0;aspect=fixed;shape=mxgraph.aws4.resourceIcon;resIcon=mxgraph.aws4.backup;" vertex="1" parent="1">
          <mxGeometry x="47" y="700" width="50" height="50" as="geometry" />
        </mxCell>
        <mxCell id="Fb5m0xqrfwQMH-HLjGYh-113" value="&lt;span style=&quot;font-size: 15px;&quot;&gt;&lt;b&gt;Backup 8&lt;br&gt;Cloud&lt;br&gt;&lt;/b&gt;&lt;/span&gt;" style="text;html=1;strokeColor=none;fillColor=none;align=center;verticalAlign=middle;whiteSpace=wrap;rounded=0;" vertex="1" parent="1">
          <mxGeometry x="34" y="872.6" width="76" height="30" as="geometry" />
        </mxCell>
        <mxCell id="Fb5m0xqrfwQMH-HLjGYh-114" value="" style="sketch=0;pointerEvents=1;shadow=0;dashed=0;html=1;strokeColor=none;fillColor=#DF8C42;labelPosition=center;verticalLabelPosition=bottom;verticalAlign=top;align=center;outlineConnect=0;shape=mxgraph.veeam2.open_vpn;" vertex="1" parent="1">
          <mxGeometry x="1125" y="224" width="52" height="54" as="geometry" />
        </mxCell>
        <mxCell id="Fb5m0xqrfwQMH-HLjGYh-115" value="&lt;span style=&quot;font-size: 15px;&quot;&gt;&lt;b&gt;OpenVPN&lt;/b&gt;&lt;/span&gt;" style="text;html=1;strokeColor=none;fillColor=none;align=center;verticalAlign=middle;whiteSpace=wrap;rounded=0;" vertex="1" parent="1">
          <mxGeometry x="1100" y="184" width="102" height="30" as="geometry" />
        </mxCell>
        <mxCell id="Fb5m0xqrfwQMH-HLjGYh-116" value="" style="image;aspect=fixed;perimeter=ellipsePerimeter;html=1;align=center;shadow=0;dashed=0;spacingTop=3;image=img/lib/active_directory/tunnel.svg;rotation=-10;" vertex="1" parent="1">
          <mxGeometry x="573.8" y="262.40000000000003" width="203" height="40.6" as="geometry" />
        </mxCell>
        <mxCell id="Fb5m0xqrfwQMH-HLjGYh-117" value="&lt;b&gt;&lt;font style=&quot;font-size: 15px;&quot;&gt;Tunnel Ipsec&lt;br&gt;Site to Site&lt;br&gt;&lt;/font&gt;&lt;/b&gt;" style="text;html=1;strokeColor=none;fillColor=none;align=center;verticalAlign=middle;whiteSpace=wrap;rounded=0;" vertex="1" parent="1">
          <mxGeometry x="610" y="216" width="102" height="30" as="geometry" />
        </mxCell>
        <mxCell id="Fb5m0xqrfwQMH-HLjGYh-118" value="" style="endArrow=none;html=1;rounded=0;exitX=-0.002;exitY=0.893;exitDx=0;exitDy=0;exitPerimeter=0;" edge="1" parent="1" source="Fb5m0xqrfwQMH-HLjGYh-63">
          <mxGeometry width="50" height="50" relative="1" as="geometry">
            <mxPoint x="1326.45" y="410" as="sourcePoint" />
            <mxPoint x="1183.55" y="350" as="targetPoint" />
          </mxGeometry>
        </mxCell>
        <mxCell id="Fb5m0xqrfwQMH-HLjGYh-119" value="" style="endArrow=none;html=1;rounded=0;exitX=-0.016;exitY=1.036;exitDx=0;exitDy=0;exitPerimeter=0;" edge="1" parent="1" source="Fb5m0xqrfwQMH-HLjGYh-64">
          <mxGeometry width="50" height="50" relative="1" as="geometry">
            <mxPoint x="1212.45" y="276" as="sourcePoint" />
            <mxPoint x="1176" y="340" as="targetPoint" />
          </mxGeometry>
        </mxCell>
        <mxCell id="Fb5m0xqrfwQMH-HLjGYh-120" value="" style="endArrow=none;html=1;rounded=0;exitX=0.519;exitY=1.037;exitDx=0;exitDy=0;exitPerimeter=0;" edge="1" parent="1" source="Fb5m0xqrfwQMH-HLjGYh-114">
          <mxGeometry width="50" height="50" relative="1" as="geometry">
            <mxPoint x="1152" y="290" as="sourcePoint" />
            <mxPoint x="1152" y="315" as="targetPoint" />
          </mxGeometry>
        </mxCell>
        <mxCell id="Fb5m0xqrfwQMH-HLjGYh-121" value="" style="endArrow=none;html=1;rounded=0;exitX=1.101;exitY=1.036;exitDx=0;exitDy=0;exitPerimeter=0;" edge="1" parent="1" source="Fb5m0xqrfwQMH-HLjGYh-52">
          <mxGeometry width="50" height="50" relative="1" as="geometry">
            <mxPoint x="1163" y="278" as="sourcePoint" />
            <mxPoint x="1114" y="333" as="targetPoint" />
          </mxGeometry>
        </mxCell>
        <mxCell id="Fb5m0xqrfwQMH-HLjGYh-122" value="" style="endArrow=none;html=1;rounded=0;exitX=0.986;exitY=1;exitDx=0;exitDy=0;exitPerimeter=0;" edge="1" parent="1" source="Fb5m0xqrfwQMH-HLjGYh-53">
          <mxGeometry width="50" height="50" relative="1" as="geometry">
            <mxPoint x="1057" y="302" as="sourcePoint" />
            <mxPoint x="1113" y="350" as="targetPoint" />
          </mxGeometry>
        </mxCell>
        <mxCell id="Fb5m0xqrfwQMH-HLjGYh-125" value="" style="sketch=0;outlineConnect=0;fontColor=#232F3E;gradientColor=none;fillColor=#4D27AA;strokeColor=none;dashed=0;verticalLabelPosition=bottom;verticalAlign=top;align=center;html=1;fontSize=12;fontStyle=0;aspect=fixed;pointerEvents=1;shape=mxgraph.aws4.route_53_resolver_dns_firewall;" vertex="1" parent="1">
          <mxGeometry x="776.8" y="243" width="32" height="32" as="geometry" />
        </mxCell>
        <mxCell id="Fb5m0xqrfwQMH-HLjGYh-126" value="" style="sketch=0;outlineConnect=0;fontColor=#232F3E;gradientColor=none;fillColor=#4D27AA;strokeColor=none;dashed=0;verticalLabelPosition=bottom;verticalAlign=top;align=center;html=1;fontSize=12;fontStyle=0;aspect=fixed;pointerEvents=1;shape=mxgraph.aws4.route_53_resolver_dns_firewall;" vertex="1" parent="1">
          <mxGeometry x="540.43" y="286" width="32" height="32" as="geometry" />
        </mxCell>
        <mxCell id="Fb5m0xqrfwQMH-HLjGYh-127" value="" style="sketch=0;outlineConnect=0;fontColor=#232F3E;gradientColor=none;fillColor=#4D27AA;strokeColor=none;dashed=0;verticalLabelPosition=bottom;verticalAlign=top;align=center;html=1;fontSize=12;fontStyle=0;aspect=fixed;pointerEvents=1;shape=mxgraph.aws4.route_53_resolver_dns_firewall;" vertex="1" parent="1">
          <mxGeometry x="1135" y="388" width="32" height="32" as="geometry" />
        </mxCell>
        <mxCell id="Fb5m0xqrfwQMH-HLjGYh-128" value="" style="sketch=0;outlineConnect=0;fontColor=#232F3E;gradientColor=none;fillColor=#4D27AA;strokeColor=none;dashed=0;verticalLabelPosition=bottom;verticalAlign=top;align=center;html=1;fontSize=12;fontStyle=0;aspect=fixed;pointerEvents=1;shape=mxgraph.aws4.route_53_resolver_dns_firewall;" vertex="1" parent="1">
          <mxGeometry x="886" y="235" width="32" height="32" as="geometry" />
        </mxCell>
        <mxCell id="Fb5m0xqrfwQMH-HLjGYh-129" value="" style="sketch=0;outlineConnect=0;fontColor=#232F3E;gradientColor=none;fillColor=#4D27AA;strokeColor=none;dashed=0;verticalLabelPosition=bottom;verticalAlign=top;align=center;html=1;fontSize=12;fontStyle=0;aspect=fixed;pointerEvents=1;shape=mxgraph.aws4.route_53_resolver_dns_firewall;" vertex="1" parent="1">
          <mxGeometry x="345.54999999999995" y="246" width="32" height="32" as="geometry" />
        </mxCell>
        <mxCell id="Fb5m0xqrfwQMH-HLjGYh-130" value="" style="endArrow=none;html=1;rounded=0;exitX=1.101;exitY=1.036;exitDx=0;exitDy=0;exitPerimeter=0;entryX=0.014;entryY=-0.029;entryDx=0;entryDy=0;entryPerimeter=0;" edge="1" parent="1" target="Fb5m0xqrfwQMH-HLjGYh-74">
          <mxGeometry width="50" height="50" relative="1" as="geometry">
            <mxPoint x="1024" y="140" as="sourcePoint" />
            <mxPoint x="1080" y="188" as="targetPoint" />
          </mxGeometry>
        </mxCell>
        <mxCell id="Fb5m0xqrfwQMH-HLjGYh-131" value="" style="endArrow=none;html=1;rounded=0;exitX=1.101;exitY=1.036;exitDx=0;exitDy=0;exitPerimeter=0;entryX=0.042;entryY=0.1;entryDx=0;entryDy=0;entryPerimeter=0;" edge="1" parent="1" target="Fb5m0xqrfwQMH-HLjGYh-74">
          <mxGeometry width="50" height="50" relative="1" as="geometry">
            <mxPoint x="971" y="150" as="sourcePoint" />
            <mxPoint x="1061" y="323" as="targetPoint" />
          </mxGeometry>
        </mxCell>
        <mxCell id="Fb5m0xqrfwQMH-HLjGYh-132" value="" style="endArrow=none;html=1;rounded=0;exitX=1.101;exitY=1.036;exitDx=0;exitDy=0;exitPerimeter=0;entryX=0.886;entryY=0.029;entryDx=0;entryDy=0;entryPerimeter=0;" edge="1" parent="1" target="Fb5m0xqrfwQMH-HLjGYh-74">
          <mxGeometry width="50" height="50" relative="1" as="geometry">
            <mxPoint x="1263" y="142" as="sourcePoint" />
            <mxPoint x="1353" y="315" as="targetPoint" />
          </mxGeometry>
        </mxCell>
        <mxCell id="Fb5m0xqrfwQMH-HLjGYh-133" value="" style="endArrow=none;html=1;rounded=0;exitX=1.101;exitY=1.036;exitDx=0;exitDy=0;exitPerimeter=0;entryX=0.028;entryY=1.043;entryDx=0;entryDy=0;entryPerimeter=0;" edge="1" parent="1" target="Fb5m0xqrfwQMH-HLjGYh-74">
          <mxGeometry width="50" height="50" relative="1" as="geometry">
            <mxPoint x="942" y="426" as="sourcePoint" />
            <mxPoint x="1032" y="599" as="targetPoint" />
          </mxGeometry>
        </mxCell>
        <mxCell id="Fb5m0xqrfwQMH-HLjGYh-134" value="" style="endArrow=none;html=1;rounded=0;exitX=1.101;exitY=1.036;exitDx=0;exitDy=0;exitPerimeter=0;entryX=0.071;entryY=0;entryDx=0;entryDy=0;entryPerimeter=0;" edge="1" parent="1" target="Fb5m0xqrfwQMH-HLjGYh-92">
          <mxGeometry width="50" height="50" relative="1" as="geometry">
            <mxPoint x="1163" y="378" as="sourcePoint" />
            <mxPoint x="1336" y="340" as="targetPoint" />
          </mxGeometry>
        </mxCell>
        <mxCell id="Fb5m0xqrfwQMH-HLjGYh-135" value="" style="endArrow=none;html=1;rounded=0;exitX=1.101;exitY=1.036;exitDx=0;exitDy=0;exitPerimeter=0;" edge="1" parent="1">
          <mxGeometry width="50" height="50" relative="1" as="geometry">
            <mxPoint x="855.5" y="310.2" as="sourcePoint" />
            <mxPoint x="856" y="280" as="targetPoint" />
          </mxGeometry>
        </mxCell>
        <mxCell id="Fb5m0xqrfwQMH-HLjGYh-137" value="" style="endArrow=none;html=1;rounded=0;exitX=0.972;exitY=1.043;exitDx=0;exitDy=0;exitPerimeter=0;entryX=0.028;entryY=1.043;entryDx=0;entryDy=0;entryPerimeter=0;" edge="1" parent="1" source="Fb5m0xqrfwQMH-HLjGYh-36">
          <mxGeometry width="50" height="50" relative="1" as="geometry">
            <mxPoint x="764" y="393" as="sourcePoint" />
            <mxPoint x="937" y="355" as="targetPoint" />
          </mxGeometry>
        </mxCell>
        <mxCell id="Fb5m0xqrfwQMH-HLjGYh-138" value="" style="endArrow=none;html=1;rounded=0;exitX=0.944;exitY=1;exitDx=0;exitDy=0;exitPerimeter=0;entryX=0.028;entryY=1.043;entryDx=0;entryDy=0;entryPerimeter=0;" edge="1" parent="1" source="Fb5m0xqrfwQMH-HLjGYh-36">
          <mxGeometry width="50" height="50" relative="1" as="geometry">
            <mxPoint x="1107" y="399" as="sourcePoint" />
            <mxPoint x="1280" y="361" as="targetPoint" />
          </mxGeometry>
        </mxCell>
      </root>
    </mxGraphModel>
  </diagram>
</mxfile>
